# xmcd
#
# Track frame offsets:
#	150
#	16887
#	32619
#	51155
#	67999
#	85410
#	105335
#	121207
#	136941
#	150407
#
# Disc length: 2213 seconds
#
# Revision: 1
# Processed by: cddbd v1.5.2PL0 Copyright (c) Steve Scherf et al.
# Submitted via: audiograbber 1.83.01
#
DISCID=7008a30a
DTITLE=Various Artist - CD Tex Vol 65 May 08
DYEAR=2008
DGENRE=Country
TTITLE0=Tim Fralki - One More
TTITLE1=Wild Horses - Surrounded
TTITLE2=Jerry Lee Surber - Showdown (At The Lonestar Saloon)
TTITLE3=Rick Soulsey - If You Could See Through My Eyes
TTITLE4=Kevin Crawford - Knee Mail
TTITLE5=Indian Rodeo - I'm Country
TTITLE6=Shiela Harrison - Hit And Run
TTITLE7=Thomas Michael Riley - In The Garden
TTITLE8=Rick Cavender - Buffalo Wings
TTITLE9=Johnny Bush - The Door
EXTD=
EXTT0=
EXTT1=
EXTT2=
EXTT3=
EXTT4=
EXTT5=
EXTT6=
EXTT7=
EXTT8=
EXTT9=
PLAYORDER=
